<svg xmlns="http://www.w3.org/2000/svg" xmlns:xlink="http://www.w3.org/1999/xlink"><symbol viewBox="0 0 72 64" id="bubbles" xmlns="http://www.w3.org/2000/svg"><path d="M68 56.323a7.296 7.296 0 0 0 4 6.511v.996c-.664.091-1.342.139-2.031.139a14.83 14.83 0 0 1-10.795-4.642 20.112 20.112 0 0 1-5.174.672c-9.941 0-18-7.163-18-16s8.059-16 18-16 18 7.163 18 16c0 3.459-1.235 6.662-3.335 9.279A7.25 7.25 0 0 0 68 56.322zM32 0c17.404 0 31.562 11.288 31.99 25.345-3.074-1.37-6.474-2.095-9.99-2.095-5.972 0-11.614 2.09-15.884 5.886C33.688 33.072 31.25 38.351 31.25 44c0 2.792.596 5.493 1.733 7.987a39.503 39.503 0 0 1-5.972-.302C20.137 58.559 11.933 59.791 4 59.972V58.29c4.284-2.099 8-5.921 8-10.29 0-.61-.047-1.208-.135-1.794C4.628 41.439 0 34.159 0 26 0 11.641 14.327 0 32 0z"/></symbol><symbol viewBox="1292 764 100 100" id="circle" xmlns="http://www.w3.org/2000/svg"><circle cx="1342" cy="814" r="50"/></symbol>
<symbol viewBox="1350.2 689 412.8 100" id="circle-triple" xmlns="http://www.w3.org/2000/svg"><circle cx="1713" cy="739" r="50"/><circle cx="1556.6" cy="739" r="50"/><circle cx="1400.2" cy="739" r="50"/></symbol>
<symbol viewBox="0 0 64 64" id="cog" xmlns="http://www.w3.org/2000/svg"><path d="M58.362 38.141c-3.358-5.816-1.339-13.269 4.51-16.655l-6.289-10.893a12.056 12.056 0 0 1-6.115 1.657c-6.721 0-12.169-5.484-12.169-12.249H25.72a12.055 12.055 0 0 1-1.622 6.141c-3.358 5.816-10.822 7.794-16.679 4.422L1.13 21.457a12.053 12.053 0 0 1 4.493 4.467c3.352 5.807 1.345 13.245-4.482 16.639L7.43 53.456a12.048 12.048 0 0 1 6.088-1.641c6.7 0 12.134 5.45 12.169 12.185h12.578a12.055 12.055 0 0 1 1.623-6.076c3.352-5.807 10.798-7.787 16.651-4.438l6.289-10.893a12.051 12.051 0 0 1-4.465-4.452zM32 44.958c-7.157 0-12.959-5.801-12.959-12.958S24.843 19.042 32 19.042 44.958 24.844 44.958 32 39.157 44.958 32 44.958z"/></symbol>
<symbol viewBox="0 0 64 64" id="glasses--martini" xmlns="http://www.w3.org/2000/svg"><path d="M55.573 11.236A2 2 0 0 0 54 8H10a2 2 0 0 0-1.573 3.236L28 36.147v23.854h-6a2 2 0 1 0 0 4h20a2 2 0 1 0 0-4h-6V36.147l19.573-24.911zM49.885 12l-6.286 8H20.4l-6.286-8h35.77z"/></symbol>
<symbol viewBox="0 0 64 64" id="glasses--wine" xmlns="http://www.w3.org/2000/svg"><path d="M48.611 1.054A2 2 0 0 0 46.849 0H17.15c-.736 0-1.413.405-1.762 1.054-2.217 4.126-3.389 8.949-3.389 13.947 0 6.588 2.023 12.802 5.697 17.496 2.839 3.628 6.405 6.034 10.303 7.011v20.493h-6a2 2 0 1 0 0 4h20a2 2 0 1 0 0-4h-6V39.508c3.898-.977 7.464-3.383 10.303-7.011 3.674-4.694 5.697-10.908 5.697-17.496 0-4.997-1.172-9.82-3.389-13.947zM18.381 4h27.238C47.18 7.306 48 11.084 48 15c0 .335-.007.668-.019 1H16.018A27.669 27.669 0 0 1 16 15c0-3.916.82-7.694 2.381-11z"/></symbol></svg>
